<svg id="Grupo_290" data-name="Grupo 290" xmlns="http://www.w3.org/2000/svg" xmlns:xlink="http://www.w3.org/1999/xlink" width="800" height="1080" viewBox="0 0 800 1080">
  <defs>
    <linearGradient id="linear-gradient" y1="1" x2="1" gradientUnits="objectBoundingBox">
      <stop offset="0" stop-color="#5c6ccd"/>
      <stop offset="1" stop-color="#5753b5"/>
    </linearGradient>
    <linearGradient id="linear-gradient-2" x1="0.897" y1="0.14" x2="0.206" y2="0.877" gradientUnits="objectBoundingBox">
      <stop offset="0" stop-color="#5b92e5"/>
      <stop offset="1" stop-color="#5a55aa"/>
    </linearGradient>
    <clipPath id="clip-path">
      <rect id="Ret창ngulo_179" data-name="Ret창ngulo 179" width="800" height="1080" fill="url(#linear-gradient)"/>
    </clipPath>
    <linearGradient id="linear-gradient-3" x1="0.5" x2="0.5" y2="1" gradientUnits="objectBoundingBox">
      <stop offset="0" stop-color="#a7a7ff"/>
      <stop offset="1" stop-color="#fff" stop-opacity="0"/>
    </linearGradient>
    <linearGradient id="linear-gradient-5" x1="0.5" x2="0.5" y2="1" gradientUnits="objectBoundingBox">
      <stop offset="0" stop-color="#54d8ff"/>
      <stop offset="1" stop-color="#fff" stop-opacity="0"/>
    </linearGradient>
  </defs>
  <rect id="Ret창ngulo_176" data-name="Ret창ngulo 176" width="800" height="1080" fill="url(#linear-gradient-2)"/>
  <g id="Grupo_4" data-name="Grupo 4" clip-path="url(#clip-path)">
    <g id="Products_Sold_Graph" data-name="Products Sold Graph" transform="translate(-548.252 319.65)" opacity="0.201">
      <path id="Filled.Graph" d="M330,822.827V577.385s308.5,160.989,555,171.1c266.539-9.8,312.693-78.7,520.308-171.1,177.416-77.019,354.346-98.157,524.168-92.715s317.013,88.642,517.612,97.169c353.879-34.351,534.429-208.025,558.338-280.561V914.109L330,914.382Z" transform="translate(-330 -298.414)" opacity="0.7" fill="url(#linear-gradient-3)"/>
      <path id="Line.Graph" d="M313,524.853S619.512,689.679,861.863,693.228s335.438-85.057,521.062-168.156,362.09-97.281,524.554-94.488,320.4,89.875,520.019,94.5S2950.059,374.554,2985.97,245.24" transform="translate(-310.545 -245.24)" fill="none" stroke="#a3a0fb" stroke-width="2"/>
      <g id="Mar.Ellipse" transform="translate(1060.62 267.186)" fill="#fff" stroke="#a4a1fb" stroke-width="2">
        <circle cx="12.259" cy="12.259" r="12.259" stroke="none"/>
        <circle cx="12.259" cy="12.259" r="11.259" fill="none"/>
      </g>
      <g id="Feb.Ellipse" transform="translate(706.13 419.878)" fill="#fff" stroke="#a4a1fb" stroke-width="2">
        <circle cx="12.259" cy="12.259" r="12.259" stroke="none"/>
        <circle cx="12.259" cy="12.259" r="11.259" fill="none"/>
      </g>
    </g>
    <g id="Products_Sold_Graph-2" data-name="Products Sold Graph" transform="translate(-675.252 581.775)" opacity="0.201">
      <path id="Filled.Graph-2" data-name="Filled.Graph" d="M330,822.827V577.385s308.5,160.989,555,171.1c266.539-9.8,312.693-78.7,520.308-171.1,177.416-77.019,354.346-98.157,524.168-92.715s317.013,88.642,517.612,97.169c353.879-34.351,534.429-208.025,558.338-280.561V914.109L330,914.382Z" transform="translate(-330 -298.414)" opacity="0.7" fill="url(#linear-gradient-3)"/>
      <path id="Line.Graph-2" data-name="Line.Graph" d="M313,524.853S619.512,689.679,861.863,693.228s335.438-85.057,521.062-168.156,362.09-97.281,524.554-94.488,320.4,89.875,520.019,94.5S2950.059,374.554,2985.97,245.24" transform="translate(-310.545 -245.24)" fill="none" stroke="#a3a0fb" stroke-width="2"/>
      <g id="Mar.Ellipse-2" data-name="Mar.Ellipse" transform="translate(1060.62 267.186)" fill="#fff" stroke="#a4a1fb" stroke-width="2">
        <circle cx="12.259" cy="12.259" r="12.259" stroke="none"/>
        <circle cx="12.259" cy="12.259" r="11.259" fill="none"/>
      </g>
    </g>
    <g id="Total_Views_Graph" data-name="Total Views Graph" transform="translate(-704.299 344.74)" opacity="0.201">
      <path id="Filled.Graph-3" data-name="Filled.Graph" d="M330,729.221v-374.8S631.107,727.05,878.452,741.074c275.977-3.158,278.239-193.446,520.751-297.616,203.024-81.794,357.942,141.325,527.763,146.767s287.023-152.916,518.71-163.918c300.179,16.568,541.051,228.141,559.742,239.517V820.5L330,820.775Z" transform="translate(-328.342 -354.422)" opacity="0.7" fill="url(#linear-gradient-5)"/>
      <path id="Line.Graph-3" data-name="Line.Graph" d="M312.953,279.164s310.478,379.5,553.129,383.044,325.629-223.6,520.459-300.177S1750.387,508.1,1913.052,510.9s318.406-167.271,518.271-162.649S2859.7,481.513,2986.03,582.992" transform="translate(-312.953 -275.989)" fill="none" stroke="#54d8ff" stroke-width="2"/>
      <g id="May.Ellipse" transform="translate(2100.301 57.949)" fill="#fff" stroke="#55d8fe" stroke-width="2">
        <circle cx="12.259" cy="12.259" r="12.259" stroke="none"/>
        <circle cx="12.259" cy="12.259" r="11.259" fill="none"/>
      </g>
      <g id="Mar.Ellipse-3" data-name="Mar.Ellipse" transform="translate(1141.141 57.019)" fill="#fff" stroke="#55d8fe" stroke-width="2">
        <circle cx="12.259" cy="12.259" r="12.259" stroke="none"/>
        <circle cx="12.259" cy="12.259" r="11.259" fill="none"/>
      </g>
    </g>
    <g id="Total_Views_Graph-2" data-name="Total Views Graph" transform="translate(-1007.023 468.869)" opacity="0.201">
      <path id="Filled.Graph-4" data-name="Filled.Graph" d="M330,729.221v-374.8S631.107,727.05,878.452,741.074c275.977-3.158,278.239-193.446,520.751-297.616,203.024-81.794,357.942,141.325,527.763,146.767s287.023-152.916,518.71-163.918c300.179,16.568,541.051,228.141,559.742,239.517V820.5L330,820.775Z" transform="translate(-329.342 -354.422)" opacity="0.7" fill="url(#linear-gradient-5)"/>
      <path id="Line.Graph-4" data-name="Line.Graph" d="M312.953,279.164s310.478,379.5,553.129,383.044,325.629-223.6,520.459-300.177S1750.387,508.1,1913.052,510.9s318.406-167.271,518.271-162.649S2859.7,481.513,2986.03,582.992" transform="translate(-312.953 -275.989)" fill="none" stroke="#54d8ff" stroke-width="2"/>
      <g id="Apr.Ellipse" transform="translate(1687.01 205.118)" fill="#fff" stroke="#55d8fe" stroke-width="2">
        <circle cx="12.259" cy="12.259" r="12.259" stroke="none"/>
        <circle cx="12.259" cy="12.259" r="11.259" fill="none"/>
      </g>
      <g id="Mar.Ellipse-4" data-name="Mar.Ellipse" transform="translate(1058.804 71.755)" fill="#fff" stroke="#55d8fe" stroke-width="2">
        <circle cx="12.259" cy="12.259" r="12.259" stroke="none"/>
        <circle cx="12.259" cy="12.259" r="11.259" fill="none"/>
      </g>
    </g>
  </g>
</svg>
